<svg xmlns="http://www.w3.org/2000/svg" width="20" height="20" viewBox="0 0 157.58 132.67"><path fill="black" d="M87.1,101.22l36.25,31.45h10.72a23.5,23.5,0,0,0,23.51-23.51V69.9ZM134.07,0H91.24A66,66,0,0,0,55.5,10.44C71.21,17.26,81.26,32.5,81.71,52.12l75.87,8.68V23.51A23.5,23.5,0,0,0,134.07,0ZM81.71,54.2c-.24,9.4-5,21-11.42,32.43L75,90.68l81-25.17Zm-5.69,52L49.54,117.91a66,66,0,0,0,41.7,14.76H99Z"/><path fill="black" d="M35.86,16.54C14.41,16.54,0,31.38,0,53.46c0,17.47,23.4,49.12,28.09,55.29l3.78,5a5,5,0,0,0,4,2h0a5,5,0,0,0,4-2l3.81-5C52.08,97.5,71.72,69.62,71.72,53.46,71.72,31.38,57.3,16.54,35.86,16.54Zm0,49.23a12,12,0,1,1,12-12A12,12,0,0,1,35.9,65.77Z"/></svg>